Coordinates
version=1
nRows=65
nColumns=12
inDegrees=yes

Units are S.I. units (second, meters, Newtons, ...)
Angles are in degrees

endheader
time	SC_y	SC_z	SC_x	AC_y	AC_z	AC_x	GH_y	GH_z	GH_yy	EL_x	PS_y
       0.0              -45.25        -0.1386          67.91          32.99         -17.82          11.28          10.58          37.45          131.8          89.08          143.6
  0.009003              -45.24        -0.1374          67.91          32.99         -17.82          11.27          10.56          37.45          131.8          89.09          143.6
   0.01801              -45.24        -0.1362          67.92          32.99         -17.82          11.27          10.54          37.45          131.8          89.09          143.6
   0.02701              -45.23        -0.1349          67.92           33.0         -17.82          11.26          10.51          37.46          131.7           89.1          143.6
   0.03601              -45.23        -0.1335          67.92           33.0         -17.81          11.26          10.49          37.46          131.7          89.11          143.6
   0.04502              -45.23         -0.132          67.92           33.0         -17.81          11.25          10.46          37.46          131.7          89.12          143.6
   0.05402              -45.22        -0.1305          67.92          33.01         -17.81          11.25          10.43          37.46          131.7          89.13          143.6
   0.06302              -45.21        -0.1288          67.92          33.01         -17.81          11.24           10.4          37.47          131.7          89.14          143.6
   0.07203              -45.21        -0.1269          67.93          33.02          -17.8          11.23          10.37          37.47          131.7          89.15          143.6
   0.08103               -45.2         -0.125          67.93          33.03          -17.8          11.23          10.33          37.47          131.7          89.16          143.6
   0.09003               -45.2        -0.1229          67.93          33.03          -17.8          11.22          10.29          37.48          131.7          89.17          143.6
   0.09904              -45.19        -0.1207          67.93          33.04          -17.8          11.21          10.25          37.48          131.7          89.18          143.6
     0.108              -45.18        -0.1182          67.94          33.05         -17.79           11.2           10.2          37.48          131.7           89.2          143.6
     0.117              -45.17        -0.1156          67.94          33.05         -17.79          11.19          10.15          37.49          131.7          89.21          143.6
     0.126              -45.16        -0.1128          67.94          33.06         -17.78          11.18           10.1          37.49          131.7          89.23          143.6
    0.1351              -45.15        -0.1097          67.95          33.07         -17.78          11.17          10.04           37.5          131.6          89.25          143.6
    0.1441              -45.14        -0.1064          67.95          33.08         -17.77          11.16          9.983           37.5          131.6          89.26          143.6
    0.1531              -45.13        -0.1028          67.96          33.09         -17.77          11.15          9.915          37.51          131.6          89.29          143.6
    0.1621              -45.12       -0.09879          67.96           33.1         -17.76          11.13          9.841          37.52          131.6          89.31          143.6
    0.1711               -45.1       -0.09444          67.97          33.12         -17.76          11.11           9.76          37.53          131.6          89.33          143.6
    0.1801              -45.09       -0.08967          67.97          33.13         -17.75           11.1          9.671          37.53          131.6          89.36          143.6
    0.1891              -45.07       -0.08441          67.98          33.15         -17.74          11.08          9.573          37.54          131.5          89.39          143.6
    0.1981              -45.05       -0.07861          67.99          33.16         -17.73          11.06          9.466          37.55          131.5          89.42          143.6
    0.2071              -45.03       -0.07218           68.0          33.18         -17.72          11.03          9.346          37.56          131.5          89.46          143.6
    0.2161               -45.0       -0.06504           68.0           33.2         -17.71          11.01          9.213          37.58          131.5           89.5          143.6
    0.2251              -44.98       -0.05706          68.01          33.23          -17.7          10.98          9.064          37.59          131.4          89.55          143.6
    0.2341              -44.95       -0.04813          68.03          33.25         -17.68          10.95          8.898           37.6          131.4           89.6          143.6
    0.2431              -44.92       -0.03808          68.04          33.28         -17.67          10.91          8.711          37.62          131.4          89.65          143.6
    0.2521              -44.88       -0.02673          68.05          33.32         -17.65          10.87            8.5          37.64          131.3          89.72          143.6
    0.2611              -44.84       -0.01384          68.07          33.35         -17.63          10.82           8.26          37.66          131.3          89.79          143.6
    0.2701              -44.79      0.0008775          68.09           33.4         -17.61          10.77          7.986          37.69          131.2          89.88          143.6
    0.2791              -44.73        0.01776          68.11          33.45         -17.58          10.71          7.672          37.72          131.1          89.97          143.6
    0.2881              -44.67        0.03726          68.13          33.51         -17.55          10.63          7.309          37.75          131.1          90.08          143.6
    0.2971              -44.59        0.05991          68.16          33.57         -17.52          10.55          6.887          37.79          131.0          90.21          143.6
    0.3061              -44.51        0.08642          68.19          33.65         -17.48          10.46          6.394          37.83          130.9          90.36          143.6
    0.3151               -44.4         0.1177          68.23          33.74         -17.43          10.34          5.813          37.89          130.7          90.54          143.6
    0.3241              -44.28         0.1548          68.28          33.85         -17.37          10.21          5.121          37.95          130.6          90.75          143.7
    0.3331              -44.13         0.1993          68.34          33.99         -17.31          10.04          4.293          38.02          130.4           91.0          143.7
    0.3421              -43.96         0.2532           68.4          34.14         -17.22          9.847          3.291          38.12          130.2          91.31          143.7
    0.3511              -43.74         0.3189          68.49          34.34         -17.12          9.607          2.067          38.23          129.9          91.69          143.7
    0.3601              -43.47         0.4001          68.59          34.58          -17.0           9.31         0.5556          38.37          129.6          92.15          143.7
    0.3691              -43.14         0.5014          68.71          34.88         -16.85          8.941         -1.329          38.54          129.2          92.72          143.7
    0.3781              -42.72         0.6289          68.87          35.26         -16.65          8.476         -3.702          38.75          128.7          93.45          143.7
    0.3871              -42.18          0.791          69.08          35.74          -16.4          7.884          -6.72          39.03          128.0          94.37          143.7
    0.3961               -41.5         0.9985          69.34          36.35         -16.09          7.127         -10.58          39.38          127.2          95.55          143.7
    0.4052              -40.62          1.265          69.67          37.14         -15.68          6.155         -15.54          39.84          126.2          97.07          143.8
    0.4142               -39.5          1.605           70.1          38.14         -15.16          4.914         -21.87          40.41          124.8          99.01          143.8
    0.4232              -38.09          2.033          70.63          39.41         -14.51          3.354         -29.83          41.14          123.1          101.4          143.8
    0.4322              -36.38          2.554          71.28          40.95         -13.71          1.452         -39.53          42.03          121.0          104.4          143.9
    0.4412              -34.38          3.158          72.04          42.74         -12.79        -0.7523         -50.77          43.05          118.6          107.8          143.9
    0.4502              -32.23          3.812          72.86          44.67         -11.79         -3.139         -62.95          44.17          116.0          111.6          144.0
    0.4592              -30.07          4.466          73.68          46.61         -10.79         -5.526         -75.12          45.28          113.4          115.3          144.1
    0.4682              -28.08          5.071          74.43           48.4         -9.871          -7.73         -86.37          46.31          111.0          118.7          144.1
    0.4772              -26.37          5.592          75.09          49.94         -9.075         -9.632         -96.07          47.19          108.9          121.7          144.2
    0.4862              -24.96           6.02          75.62           51.2         -8.423         -11.19         -104.0          47.92          107.2          124.1          144.2
    0.4952              -23.84           6.36          76.05          52.21         -7.903         -12.43         -110.4           48.5          105.8          126.1          144.2
    0.5042              -22.96          6.626          76.38           53.0         -7.497         -13.41         -115.3          48.95          104.7          127.6          144.3
    0.5132              -22.28          6.834          76.64          53.61          -7.18         -14.16         -119.2           49.3          103.9          128.8          144.3
    0.5222              -21.74          6.996          76.85          54.09         -6.933         -14.75         -122.2          49.58          103.3          129.7          144.3
    0.5312              -21.32          7.123          77.01          54.47         -6.738         -15.22         -124.6           49.8          102.8          130.4          144.3
    0.5402              -20.99          7.224          77.13          54.77         -6.583         -15.59         -126.5          49.97          102.3          131.0          144.3
    0.5492              -20.72          7.306          77.23          55.01          -6.46         -15.88         -128.0          50.11          102.0          131.5          144.3
    0.5582               -20.5          7.371          77.32           55.2         -6.359         -16.12         -129.2          50.22          101.8          131.8          144.3
    0.5672              -20.33          7.425          77.38          55.36         -6.277         -16.32         -130.2          50.31          101.5          132.1          144.3
    0.5762              -20.18           7.47          77.44          55.49         -6.209         -16.48         -131.0          50.38          101.4          132.4          144.4
